<svg xmlns="http://www.w3.org/2000/svg" role="img" viewBox="131.60 130.35 228.80 198.80"><g id="#fbede6ff"><path fill="#F7F3E3" d="M 187.09 184.36 C 187.91 184.34 189.55 184.31 190.36 184.29 C 189.30 185.63 188.19 186.94 187.04 188.21 C 187.04 186.93 187.06 185.64 187.09 184.36 Z"/></g><g id="#010101ff" fill="#F7F3E3"><path d="M 161.81 135.27 C 167.85 134.63 173.94 135.01 180.00 134.91 C 185.72 135.03 191.48 134.59 197.18 135.29 C 195.31 137.83 191.45 136.26 189.12 138.16 C 186.76 139.99 186.99 143.29 186.93 145.96 C 187.04 158.35 186.82 170.73 187.04 183.12 C 189.14 182.71 191.80 183.20 193.27 181.28 C 204.81 168.49 216.28 155.63 227.83 142.84 C 229.06 141.51 230.60 138.98 228.40 137.77 C 225.34 136.53 221.91 137.03 218.78 136.07 C 220.05 135.18 221.46 134.79 222.99 134.89 C 230.78 134.90 238.58 134.94 246.37 134.93 C 246.19 135.33 245.82 136.15 245.64 136.55 C 240.33 136.77 234.46 137.46 230.85 141.85 C 218.63 155.18 206.78 168.85 194.65 182.26 C 197.68 183.57 198.94 186.32 199.64 189.35 C 203.96 192.86 210.32 193.22 214.92 190.05 C 223.00 201.67 230.94 213.38 239.00 225.02 C 240.72 227.57 242.78 230.01 245.55 231.48 C 248.22 232.95 251.38 232.85 254.19 233.96 C 251.73 235.56 248.75 234.88 246.00 235.02 C 240.16 234.94 233.84 235.59 228.64 232.37 C 222.64 228.71 219.12 222.40 215.12 216.84 C 209.39 208.37 203.38 200.07 197.78 191.51 C 196.26 191.88 194.70 192.82 193.11 192.30 C 191.00 191.95 190.13 189.80 189.01 188.28 C 188.25 189.46 186.85 190.48 186.96 192.04 C 186.86 202.70 186.97 213.37 186.91 224.04 C 186.98 226.53 186.79 229.40 188.64 231.37 C 190.87 233.89 195.36 231.88 197.20 234.73 C 185.42 235.16 173.58 235.18 161.79 234.73 C 162.88 232.54 165.72 233.39 167.66 232.67 C 170.81 232.21 171.95 228.76 171.83 225.98 C 171.90 213.75 171.82 201.51 171.86 189.28 C 157.06 195.90 145.46 209.05 140.42 224.43 C 135.47 239.29 136.73 256.13 143.93 270.06 C 151.11 284.17 164.16 295.18 179.33 299.75 C 195.31 304.80 213.43 302.55 227.69 293.75 C 241.03 284.63 252.54 272.98 261.92 259.85 C 277.02 239.12 287.15 215.19 302.87 194.88 C 311.40 184.13 327.62 180.85 339.71 187.27 C 348.30 191.64 354.57 200.35 355.77 209.94 C 357.17 219.80 353.27 230.24 345.65 236.67 C 339.73 241.91 331.70 244.32 323.86 244.05 C 320.24 250.33 322.41 257.69 323.99 264.23 C 326.30 275.38 329.43 286.55 329.09 298.03 C 328.61 304.96 325.66 311.41 322.45 317.46 C 321.29 319.45 320.03 321.88 317.59 322.46 C 305.66 325.62 293.20 324.29 281.01 324.75 C 275.22 324.46 268.63 326.03 263.58 322.40 C 260.82 320.31 261.09 316.46 261.55 313.42 C 262.47 308.62 263.65 303.84 265.42 299.28 C 265.79 299.21 266.51 299.06 266.87 298.99 C 268.31 300.90 269.12 303.51 271.47 304.55 C 274.11 305.75 277.10 305.70 279.95 305.83 C 292.78 305.77 305.66 306.75 318.46 305.47 C 320.98 305.02 324.42 303.26 323.84 300.19 C 320.59 283.35 315.68 266.90 311.54 250.27 C 310.72 245.68 309.07 240.62 311.34 236.19 C 312.31 233.95 314.07 232.16 316.04 230.76 C 319.92 233.93 321.47 239.45 325.42 242.47 C 339.76 243.13 353.14 231.29 354.36 217.01 C 356.03 203.77 347.06 190.33 334.24 186.71 C 323.05 183.16 309.91 187.52 303.08 197.07 C 284.09 222.55 272.56 253.19 250.32 276.31 C 241.24 285.38 231.82 294.77 219.63 299.53 C 205.04 305.29 188.20 305.43 173.68 299.34 C 157.87 292.97 145.11 279.62 139.43 263.55 C 136.66 256.37 136.40 248.60 136.04 241.01 C 136.26 218.22 151.13 196.82 171.77 187.53 C 171.95 173.34 171.81 159.15 171.85 144.96 C 171.80 142.44 171.78 139.22 169.24 137.84 C 167.00 136.31 163.37 137.79 161.81 135.27 M 187.09 184.36 C 187.06 185.64 187.04 186.93 187.04 188.21 C 188.19 186.94 189.30 185.63 190.36 184.29 C 189.55 184.31 187.91 184.34 187.09 184.36 Z"/><path d="M 278.49 268.56 C 280.31 261.17 285.79 254.98 292.63 251.79 C 293.30 254.16 293.97 256.54 294.59 258.94 C 291.50 260.65 286.62 261.03 285.60 265.01 C 287.88 270.27 295.37 267.56 298.70 271.40 C 301.81 278.79 296.50 287.59 289.27 290.07 C 283.54 291.86 277.61 289.29 272.95 286.02 C 278.79 284.37 285.12 284.00 290.40 280.74 C 287.90 277.27 282.77 279.02 279.83 276.14 C 277.52 274.35 277.95 271.07 278.49 268.56 Z"/></g></svg>